<?xml version="1.0" encoding="UTF-8"?>
<svg preserveAspectRatio="xMidYMid slice" xmlns="http://www.w3.org/2000/svg" xmlns:xlink="http://www.w3.org/1999/xlink" width="800px" height="888px" viewBox="0 0 393 436">
  <!-- Generator: Sketch 52.2 (67145) - http://www.bohemiancoding.com/sketch -->
  <title>Fill 1</title>
  <desc>Created with Sketch.</desc>
  <defs>
    <polygon id="path-1" points="0.06 0.571 361.737 0.571 361.737 436 0.06 436"></polygon>
  </defs>
  <g id="Page-1" stroke="none" stroke-width="1" fill="none" fill-rule="evenodd">
    <g id="udemy_logo_vertical_TM_PMS">
      <g id="Fill-1">
        <polyline fill="#655A51" points="377.216 168.717 377.216 176.94 375.525 176.94 375.525 168.717 372.698 168.717 372.698 167.08 380.042 167.08 380.042 168.717 377.216 168.717"></polyline>
        <polyline id="Fill-2" fill="#655A51" points="383.816 170.624 383.816 176.94 382.287 176.94 382.287 167.08 383.652 167.08 387.412 174.045 391.172 167.08 392.416 167.08 392.416 176.94 390.848 176.94 390.848 170.651 387.426 176.94 387.224 176.94 383.816 170.624"></polyline>
        <g id="Group-6" stroke-width="1">
          <mask id="mask-2" fill="white">
            <use xlink:href="#path-1"></use>
          </mask>
          <g id="Clip-4"></g>
          <path d="M288.658,436 L303.647,436 L329.573,370.29 L314.741,370.29 L304.022,403.017 L292.731,370.29 L276.176,370.29 L295.889,417.754 L288.658,436 Z M214.277,385.888 L214.277,419.572 L199.158,419.572 L199.158,370.29 L209.78,370.29 L212.939,374.596 C217.052,371.151 221.454,369.141 226.527,369.141 C233.32,369.141 238.488,371.151 241.646,376.128 C246.239,371.917 251.12,369.141 257.341,369.141 C269.015,369.141 275.809,375.17 275.809,391.534 L275.809,419.572 L260.689,419.572 L260.689,393.257 C260.689,385.697 257.627,383.496 252.746,383.496 C249.875,383.496 247.484,384.261 244.804,385.983 C244.995,387.706 245.092,389.524 245.092,391.534 L245.092,419.572 L229.971,419.572 L229.971,393.257 C229.971,385.697 226.909,383.496 221.934,383.496 C219.157,383.496 216.861,384.165 214.277,385.888 Z M161.546,390.098 L180.971,390.098 C179.919,383.687 176.474,380.625 171.306,380.625 C166.904,380.625 162.694,383.209 161.546,390.098 Z M172.359,420.529 C157.814,420.529 146.139,413.352 146.139,394.405 C146.139,376.702 157.431,369.046 170.444,369.046 C186.139,369.046 193.125,380.051 193.125,397.372 L161.449,397.372 C162.503,405.888 167.766,408.376 174.752,408.376 C181.51,408.376 186.794,406.708 190.883,403.958 L188.831,415.952 C184.93,418.965 180.244,420.529 172.359,420.529 Z M116.062,407.802 C119.506,407.802 122.09,407.227 124.769,405.218 L124.769,383.782 C122.377,382.347 119.985,381.677 116.539,381.677 C109.172,381.677 104.96,386.653 104.96,394.978 C104.96,403.113 109.268,407.802 116.062,407.802 Z M127.735,415.936 C123.812,418.903 119.316,420.72 112.903,420.72 C99.411,420.72 89.65,412.395 89.65,395.265 C89.65,378.233 100.846,369.046 115.2,369.046 C118.549,369.046 121.803,369.524 124.769,370.674 L124.769,349.756 L139.89,349.756 L139.89,419.572 L130.319,419.572 L127.735,415.936 Z M25.587,390.385 L25.587,353.863 L41.279,353.863 L41.279,390.098 C41.279,403.113 47.117,405.792 55.156,405.792 C63.864,405.792 68.361,401.965 68.361,390.098 L68.361,353.863 L84.151,353.863 L84.151,390.385 C84.151,411.917 74.773,420.912 54.39,420.912 C35.444,420.912 25.587,413.161 25.587,390.385 Z" id="Fill-3" fill="#655A51" mask="url(#mask-2)"></path>
          <path d="M355.661,169.13 C354.393,168.11 352.964,167.423 351.41,167.132 C342.231,176.28 331.022,185.922 321.077,192.401 C316.487,195.45 310.713,196.975 306.888,196.975 C298.091,196.975 294.266,188.59 293.118,175.249 C291.588,157.335 290.556,135.879 290.556,102.718 C290.556,68.706 282.833,45.587 262.272,43.77 C261.404,43.694 260.523,43.641 259.61,43.641 C246.986,43.641 240.866,50.12 232.834,66.51 C225.949,80.612 215.239,101.194 195.349,140.071 C178.136,173.612 159.011,203.341 142.564,223.924 C137.981,229.632 134.36,233.549 130.96,235.782 C128.683,237.277 126.504,238.026 124.203,238.026 C117.713,238.026 112.972,232.548 111.391,219.789 C111.015,216.757 110.816,213.319 110.816,209.44 C110.816,183.141 120.761,140.452 137.973,77.563 C150.596,31.825 145.241,0.571 117.701,0.571 C117.656,0.571 117.612,0.574 117.568,0.574 C117.508,0.574 117.45,0.571 117.391,0.571 L117.369,0.579 C111.134,0.65 105.963,2.912 100.984,6.83 C96.08,10.689 91.168,19.032 86.585,30.246 C81.424,42.877 50.015,105.871 0.034,138.323 C-0.554,150.661 6.428,162.995 20.585,164.333 C33.468,165.55 42.612,160.125 54.39,152.211 C53.508,156.145 52.692,159.824 51.95,163.184 C51.072,167.16 50.323,170.589 49.721,173.355 C48.825,177.472 48.255,180.119 48.085,180.854 C46.453,188.359 45.283,195.49 44.526,202.258 C37.477,265.257 66.676,296.341 100.871,296.341 C106.588,296.341 112.246,295.659 117.873,294.231 C155.546,284.676 191.817,241.461 234.747,141.977 C234.099,152.799 234.031,162.906 234.496,172.286 C237.326,229.304 259.878,246.411 291.739,246.411 C315.837,246.411 338.405,233.834 349.88,218.207 C358.295,207.153 361.737,194.956 361.737,185.427 C361.737,178.033 359.394,172.128 355.661,169.13" id="Fill-5" fill="#DA514C" mask="url(#mask-2)"></path>
        </g>
      </g>
    </g>
  </g>
</svg>
